<svg xmlns="http://www.w3.org/2000/svg" version="1.1" xmlns:xlink="http://www.w3.org/1999/xlink" xmlns:svgjs="http://svgjs.dev/svgjs" width="1000" height="1000" viewBox="0 0 1000 1000"><rect width="1000" height="1000" fill="#ffffff"></rect><g transform="matrix(0.7,0,0,0.7,149.90044910179654,149.90044910179637)"><svg viewBox="0 0 334 334" data-background-color="#ffffff" preserveAspectRatio="xMidYMid meet" height="1000" width="1000" xmlns="http://www.w3.org/2000/svg" xmlns:xlink="http://www.w3.org/1999/xlink"><g id="tight-bounds" transform="matrix(1,0,0,1,0.04749999999998522,0.04750000000001364)"><svg viewBox="0 0 333.90454557049503 333.90454557049503" height="333.90454557049503" width="333.90454557049503"><g><svg></svg></g><g><svg viewBox="0 0 333.90454557049503 333.90454557049503" height="333.90454557049503" width="333.90454557049503"><g><path d="M0 166.952c0-92.205 74.747-166.952 166.952-166.952 92.205 0 166.952 74.747 166.953 166.952 0 92.205-74.747 166.952-166.953 166.953-92.205 0-166.952-74.747-166.952-166.953zM166.952 316.63c82.665 0 149.677-67.013 149.678-149.678 0-82.665-67.013-149.677-149.678-149.677-82.665 0-149.677 67.013-149.677 149.677 0 82.665 67.013 149.677 149.677 149.678z" data-fill-palette-color="tertiary" fill="#000000" stroke="transparent"></path><ellipse rx="160.27418187383762" ry="160.27418187383762" cx="166.95227278524752" cy="166.95227278524752" fill="#000000" stroke="transparent" stroke-width="0" fill-opacity="1" data-fill-palette-color="tertiary"></ellipse></g><g transform="matrix(1,0,0,1,97.96008622945027,71.17305217166896)"><svg viewBox="0 0 137.9843731115945 191.55844122715712" height="191.55844122715712" width="137.9843731115945"><g><svg viewBox="0 0 137.9843731115945 191.55844122715712" height="191.55844122715712" width="137.9843731115945"><g><svg viewBox="0 0 137.9843731115945 191.55844122715712" height="191.55844122715712" width="137.9843731115945"><g><svg viewBox="0 0 137.9843731115945 191.55844122715712" height="191.55844122715712" width="137.9843731115945"><g id="textblocktransform"><svg viewBox="0 0 137.9843731115945 191.55844122715712" height="191.55844122715712" width="137.9843731115945" id="textblock"><g><svg viewBox="0 0 137.9843731115945 191.55844122715712" height="191.55844122715712" width="137.9843731115945"><g transform="matrix(1,0,0,1,0,0)"><svg width="137.9843731115945" viewBox="0.25 -25 22.149999618530273 30.75" height="191.55844122715712" data-palette-color="#4d7e3e"><path d="M9.6 2.25L9.6 2.25Q9.95-1.65 9.95-8.53 9.95-15.4 8.8-25L8.8-25 22.3-25Q22.4-23.1 22.4-19.15L22.4-19.15Q22.4-8.55 21 0L21 0Q19.05 1.85 17.4 2.73 15.75 3.6 15.15 3.93 14.55 4.25 13 4.93 11.45 5.6 11.15 5.75L11.15 5.75Q4.75 5.25 0.25 3.5L0.25 3.5Q0.35 0.2 0.55-2.6L0.55-2.6Q5.2 0.75 9.6 2.25Z" opacity="1" transform="matrix(1,0,0,1,0,0)" fill="#ffffff" class="wordmark-text-0" data-fill-palette-color="quaternary" id="text-0"></path></svg></g></svg></g></svg></g></svg></g><g></g></svg></g></svg></g></svg></g></svg></g><defs></defs></svg><rect width="333.90454557049503" height="333.90454557049503" fill="none" stroke="none" visibility="hidden"></rect></g></svg></g></svg>